#!OML:ASF F:\VICON\USERDATA\INSTALL\rory3\rory3.ASF
:FULLY-SPECIFIED
:DEGREES
447
root 1.44147 17.8378 -21.1802 28.011 5.24516 11.5522
lowerback -11.2441 -8.32024 -1.13655
upperback -13.6759 -11.322 -2.38315
thorax -8.78652 -5.79847 -2.27159
lowerneck -7.88352 5.87019 0.342425
upperneck 15.0968 8.1512 -1.33026
head 5.93497 3.87641 0.131542
rclavicle -1.63799e-013 -1.2921e-013
rhumerus -28.3972 -33.7087 -11.8024
rradius 13.9918
rwrist 42.7897
rhand 22.01 0.786738
rfingers 7.12502
rthumb 46.4027 -22.1382
lclavicle -1.63799e-013 -1.2921e-013
lhumerus 60.6774 -45.2666 16.073
lradius 25.5864
lwrist -33.1805
lhand 18.0432 25.0377
lfingers 7.12502
lthumb 42.708 49.3861
rfemur -55.1925 14.4618 -5.35593
rtibia 37.1211
rfoot -46.4476 -20.6635
rtoes 60.8258
lfemur -14.2211 -5.21934 -19.2382
ltibia 29.0004
lfoot 13.6272 19.0087
ltoes 9.9001
448
root 1.36217 17.9024 -21.0484 27.6875 6.36067 12.0367
lowerback -9.90024 -8.71624 -1.12786
upperback -14.5044 -12.0012 -2.63821
thorax -10.6309 -6.13714 -2.24999
lowerneck -7.64948 6.04517 0.0509363
upperneck 16.0569 8.3685 -0.765069
head 6.16169 3.99649 0.380225
rclavicle 9.29318e-014 5.86415e-014
rhumerus -31.1763 -39.175 -5.33304
rradius 13.1935
rwrist 51.216
rhand 21.1732 0.477533
rfingers 7.12502
rthumb 45.6264 -22.771
lclavicle 9.29318e-014 5.86415e-014
lhumerus 61.6446 -45.2589 14.5624
lradius 24.998
lwrist -32.397
lhand 17.7187 25.7314
lfingers 7.12502
lthumb 42.4043 50.1845
rfemur -53.5941 15.4887 -5.66802
rtibia 36.6416
rfoot -48.772 -18.6234
rtoes 61.1924
lfemur -12.2286 -5.49063 -17.8407
ltibia 29.2796
lfoot 14.2887 21.5166
ltoes 5.5433
449
root 1.28261 17.9656 -20.9166 27.1453 7.21374 12.5009
lowerback -11.4388 -8.97736 -1.68967
upperback -13.0939 -12.1639 -3.31469
thorax -8.1817 -6.2276 -3.06547
lowerneck -8.19966 5.947 0.0901914
upperneck 15.1652 8.16289 -0.488692
head 5.9628 3.92879 0.444679
rclavicle 7.37491e-014 2.06736e-014
rhumerus -36.2283 -48.2529 2.83761
rradius 12.5867
rwrist 60.2718
rhand 20.2857 -0.585834
rfingers 7.12502
rthumb 44.8012 -24.1633
lclavicle 7.37491e-014 2.06736e-014
lhumerus 62.8988 -41.8778 13.9709
lradius 24.5289
lwrist -33.8883
lhand 16.954 25.407
lfingers 7.12502
lthumb 41.6876 50.1009
rfemur -51.8957 17.1059 -6.1488
rtibia 36.0186
rfoot -51.0067 -17.1006
rtoes 61.2909
lfemur -10.027 -5.55079 -16.4787
ltibia 29.6015
lfoot 16.3536 24.9911
ltoes 2.80843
450
root 1.20438 18.0215 -20.7715 26.4399 7.76934 13.4145
lowerback -10.5856 -9.31553 -2.58448
upperback -12.8052 -12.6226 -3.74189
thorax -8.26575 -6.3921 -2.94983
lowerneck -10.3963 6.04676 -0.513271
upperneck 16.3075 8.32997 0.163394
head 6.64943 3.99534 0.859655
rclavicle -1.49089e-013 -8.18993e-014
rhumerus -40.5029 -53.1149 10.166
rradius 12.3729
rwrist 66.4705
rhand 19.6825 -1.13958
rfingers 7.12502
rthumb 44.2392 -24.9327
lclavicle -1.49089e-013 -8.18993e-014
lhumerus 61.4166 -38.5434 18.2251
lradius 23.2107
lwrist -38.4788
lhand 16.6278 23.9724
lfingers 7.12502
lthumb 41.3816 48.7662
rfemur -49.9564 18.9399 -7.06994
rtibia 35.3441
rfoot -53.2122 -15.7232
rtoes 61.2832
lfemur -7.45314 -5.62865 -15.657
ltibia 29.8196
lfoot 17.5472 28.5053
ltoes 3.40146
451
root 1.14481 18.0823 -20.6574 26.7705 7.35375 13.9158
lowerback -10.795 -9.34359 -3.21612
upperback -13.6588 -12.693 -3.9839
thorax -9.08688 -6.38603 -2.8408
lowerneck -8.11342 6.29615 -0.548506
upperneck 15.875 8.62913 0.262219
head 6.10963 4.16845 0.825054
rclavicle 3.74212e-014 7.55382e-015
rhumerus -42.6717 -54.144 15.1193
rradius 12.3712
rwrist 70.1604
rhand 19.3233 -1.00711
rfingers 7.12502
rthumb 43.9041 -24.9256
lclavicle 3.74212e-014 7.55382e-015
lhumerus 55.8205 -35.2476 27.2973
lradius 22.1538
lwrist -47.6361
lhand 16.6985 21.7133
lfingers 7.12502
lthumb 41.448 46.4856
rfemur -49.4086 17.96 -6.81726
rtibia 34.5782
rfoot -51.5168 -18.4165
rtoes 60.6698
lfemur -5.96095 -4.96378 -14.8536
ltibia 29.9229
lfoot 17.0622 32.5692
ltoes 7.22897
452
root 1.07774 18.1381 -20.5323 26.9439 7.05289 14.5393
lowerback -11.0728 -9.44637 -3.97813
upperback -14.127 -12.827 -4.33508
thorax -9.43581 -6.40623 -2.83384
lowerneck -7.30075 6.52142 -0.504525
upperneck 15.9865 8.89091 0.483106
head 5.99524 4.31912 0.876878
rclavicle -1.86858e-013 -1.66184e-013
rhumerus -44.98 -55.3116 19.8575
rradius 12.5013
rwrist 73.4074
rhand 18.8953 -0.822445
rfingers 7.12502
rthumb 43.5046 -24.8876
lclavicle -1.86858e-013 -1.66184e-013
lhumerus 57.0912 -35.1591 25.4417
lradius 22.2342
lwrist -46.4816
lhand 16.4329 22.9554
lfingers 7.12502
lthumb 41.1987 47.8084
rfemur -48.6809 17.6553 -6.92251
rtibia 33.8901
rfoot -50.6859 -19.414
rtoes 60.5223
lfemur -4.1465 -4.48856 -13.981
ltibia 29.7556
lfoot 10.824 34.0092
ltoes 15.7737
453
root 1.01148 18.1974 -20.3996 26.9123 6.90384 15.1814
lowerback -11.2734 -9.64026 -4.72009
upperback -14.2704 -13.0594 -4.68154
thorax -9.45296 -6.47836 -2.85521
lowerneck -7.60802 6.72308 -0.653429
upperneck 16.2779 9.129 0.902105
head 6.11073 4.45338 1.06611
rclavicle 3.10104e-014 1.98785e-014
rhumerus -46.7763 -56.4548 23.814
rradius 12.6055
rwrist 75.9631
rhand 18.2086 -0.600705
rfingers 7.12502
rthumb 42.8627 -24.895
lclavicle 3.10104e-014 1.98785e-014
lhumerus 60.9555 -35.5486 19.619
lradius 22.5768
lwrist -42.2696
lhand 16.7649 24.731
lfingers 7.12502
lthumb 41.5103 49.483
rfemur -47.5868 17.5171 -6.96304
rtibia 33.1102
rfoot -49.8023 -20.7349
rtoes 60.1932
lfemur -2.13473 -4.57737 -13.0841
ltibia 29.5803
lfoot 18.2471 35.7498
ltoes 11.4987
454
root 0.945193 18.2542 -20.2712 26.8941 6.71662 16.0459
lowerback -11.4795 -9.89696 -5.69237
upperback -14.3721 -13.358 -5.10386
thorax -9.39625 -6.56785 -2.85384
lowerneck -7.78513 6.90112 -1.01704
upperneck 16.4095 9.31074 1.61701
head 6.12654 4.57461 1.36692
rclavicle 1.13009e-013 1.08934e-013
rhumerus -48.8606 -58.1196 27.9843
rradius 12.6626
rwrist 78.8294
rhand 17.7432 -0.601015
rfingers 7.12502
rthumb 42.4272 -25.0463
lclavicle 1.13009e-013 1.08934e-013
lhumerus 62.2561 -34.6559 17.5782
lradius 23.0096
lwrist -41.667
lhand 17.2085 25.4469
lfingers 7.12502
lthumb 41.9263 50.0616
rfemur -46.576 17.6967 -7.46502
rtibia 32.4444
rfoot -50.1197 -21.4656
rtoes 60.0073
lfemur -0.0233829 -4.8438 -12.4417
ltibia 29.1802
lfoot 19.9207 35.7097
ltoes 9.88172
455
root 0.89149 18.3085 -20.1621 27.5372 5.77676 16.6445
lowerback -12.198 -9.79549 -6.28455
upperback -14.3718 -13.1321 -5.62016
thorax -9.02705 -6.45315 -3.21906
lowerneck -9.70907 6.97077 -1.18387
upperneck 17.1282 9.33232 2.39297
head 6.63864 4.62479 1.73956
rclavicle 1.13804e-013 1.06549e-013
rhumerus -52.6801 -60.1715 33.5518
rradius 12.729
rwrist 81.6228
rhand 17.1776 -0.64659
rfingers 7.12502
rthumb 41.8973 -25.2709
lclavicle 1.13804e-013 1.06549e-013
lhumerus 64.4693 -33.1992 14.9918
lradius 23.6213
lwrist -40.1997
lhand 17.4762 26.3088
lfingers 7.12502
lthumb 42.1772 50.8392
rfemur -46.7068 16.8552 -7.81147
rtibia 31.8171
rfoot -48.5066 -23.0852
rtoes 59.7129
lfemur 1.56948 -4.52425 -11.9956
ltibia 28.6912
lfoot 20.1911 37.2346
ltoes 14.1799
456
root 0.828858 18.3544 -20.045 28.0119 5.12655 17.4988
lowerback -12.8305 -10.1415 -7.44123
upperback -15.4229 -13.5586 -5.73311
thorax -9.78206 -6.55751 -2.8166
lowerneck -6.50026 7.41978 -1.18463
upperneck 16.2967 9.88909 2.47426
head 5.80669 4.91832 1.63408
rclavicle -5.80451e-014 -1.01778e-013
rhumerus -50.1247 -59.5945 33.1098
rradius 12.833
rwrist 82.6408
rhand 16.7499 -0.640381
rfingers 7.12502
rthumb 41.4962 -25.397
lclavicle -5.80451e-014 -1.01778e-013
lhumerus 62.6808 -33.0766 16.5187
lradius 22.929
lwrist -40.2199
lhand 15.9598 25.9531
lfingers 7.12502
lthumb 40.7543 50.9471
rfemur -46.5275 16.828 -8.67884
rtibia 31.2116
rfoot -48.1573 -23.3899
rtoes 59.7387
lfemur 3.33039 -4.40251 -11.5893
ltibia 28.2172
lfoot 19.9329 39.2245
ltoes 19.8734
